<?xml version="1.0" encoding="UTF-8" standalone="no"?>
<!DOCTYPE svg PUBLIC "-//W3C//DTD SVG 1.1//EN" "http://www.w3.org/Graphics/SVG/1.1/DTD/svg11.dtd">
<svg width="100%" height="100%" viewBox="0 0 281 282" version="1.1" xmlns="http://www.w3.org/2000/svg" xmlns:xlink="http://www.w3.org/1999/xlink" xml:space="preserve" xmlns:serif="http://www.serif.com/" style="fill-rule:evenodd;clip-rule:evenodd;stroke-linejoin:round;stroke-miterlimit:2;">
    <g transform="matrix(1,0,0,1,-1295.19,-137.574)">
        <g transform="matrix(0.476565,0,0,0.476565,1200.22,-723.451)">
            <g id="ellipse8" transform="matrix(4.16667,0,0,4.16667,197.749,1806.98)">
                <ellipse cx="70.913" cy="70.912" rx="70.547" ry="70.972" style="fill:rgb(41,41,41);"/>
            </g>
            <path id="ellipse81" serif:id="ellipse8" d="M206.283,2038.01C209.635,2025.14 213.872,2012.6 218.925,2000.48C221.123,2005.18 223.099,2007.87 226.767,2011.45C227.948,2014.91 229.381,2016.9 231.352,2018.68C206.798,2086.27 210.888,2162.11 242.831,2226.8C425.361,2073.14 505.848,2277.99 753.998,2173.81C770.678,2110.55 777.345,2069.97 749.76,2005.35L769.408,2005.35L769.416,2005.35C773.769,2016.33 777.453,2027.63 780.419,2039.22C784.836,2059.58 787.166,2080.74 787.166,2102.45C787.166,2265.66 655.453,2398.16 493.219,2398.16C330.986,2398.16 199.273,2265.66 199.273,2102.45C199.273,2080.32 201.695,2058.75 206.283,2038.01Z" style="fill-opacity:0.2;"/>
            <g>
                <g id="ellipse12" transform="matrix(4.16667,0,0,4.16667,197.749,1806.98)">
                    <ellipse cx="44.705" cy="32.52" rx="5.79" ry="5.825" style="fill:white;"/>
                </g>
                <g id="ellipse14" transform="matrix(4.16667,0,0,4.16667,197.749,1806.98)">
                    <ellipse cx="48.082" cy="25.36" rx="3.221" ry="3.241" style="fill:white;"/>
                </g>
            </g>
            <path id="ellipse82" serif:id="ellipse8" d="M552.544,2392.13C539.693,2366.77 532.99,2339.1 532.91,2311.08C532.928,2272.12 545.745,2234.08 569.643,2202.05C621.063,2208.31 680.256,2204.79 754.436,2173.65C759.479,2154.52 763.573,2137.48 766.116,2121.21L766.113,2121.21C772.916,2122.04 779.669,2123.19 786.348,2124.64C776.544,2257.44 679.378,2365.95 552.544,2392.13Z" style="fill-opacity:0.31;"/>
        </g>
    </g>
</svg>
